# xmcd CD database file
#
# Track frame offsets:
#	150
#	25496
#	58950
#	69387
#	82475
#	94343
#	107080
#	119607
#	166229
#	190069
#	201424
#	217095
#	229944
#	242032
#
# Disc length: 3382 seconds
#
# Revision: 2
# Processed by: cddbd v1.5.1PL0 Copyright (c) Steve Scherf et al.
# Submitted via: CDex 1.51
#
DISCID=da0d340e
DTITLE=Canned Heat - Boogie With Hooker n' Heat
DYEAR=1900
DGENRE=Blues
TTITLE0=Dust My Broom
TTITLE1=When Things Go Wrong
TTITLE2=Dimples
TTITLE3=Hobo Blues
TTITLE4=I Love You Honey
TTITLE5=I'm In The Mood
TTITLE6=Crawling King Snake Blues
TTITLE7=Sweet Sixteen
TTITLE8=I' Rather Be The Devil
TTITLE9=No Shoes
TTITLE10=Tupelo
TTITLE11=Whiskey 'n Women
TTITLE12=Boogie Chillun'
TTITLE13=Boom Boom
EXTD=
EXTT0=
EXTT1=
EXTT2=
EXTT3=
EXTT4=
EXTT5=
EXTT6=
EXTT7=
EXTT8=
EXTT9=
EXTT10=
EXTT11=
EXTT12=
EXTT13=
PLAYORDER=
